<?xml version="1.0" encoding="utf-8"?>
<!-- Generator: Adobe Illustrator 26.0.1, SVG Export Plug-In . SVG Version: 6.00 Build 0)  -->
<svg version="1.1" id="Layer_1" xmlns="http://www.w3.org/2000/svg" xmlns:xlink="http://www.w3.org/1999/xlink" x="0px" y="0px"
	 viewBox="0 0 1206.7 200" style="enable-background:new 0 0 1206.7 200;" xml:space="preserve">
<style type="text/css">
	.st0{fill:#54565A;}
</style>
<path id="Unione_38" class="st0" d="M63.5,200c-0.5,0-1,0-1.5,0c-24.6,0-46.5-4.5-62-14l2.9-24.2l3.9,3.2
	c5.3,4.1,24.7,18.7,43.5,24.7c1.5,0.4,13.9,3.8,25.6,0.9c18-4.5,31.1-17.7,31.5-35C106.5,107.7,2.6,103.3,2.6,48.7
	c0-1.9,0.1-3.7,0.3-5.4H2.8C4.9,15.8,27.7,0,60.5,0c0.5,0,1.1,0.1,1.6,0.1S62.9,0,63.3,0c33.4,0,52.5,13.1,53.6,14l-2.3,25.3l-3-2.7
	l-1.4-1.2C105.1,30.6,85.9,14,67.8,9.2C61.9,7.9,55.8,8,50,9.6c-16,5.1-24.9,20.7-24.9,35.7c0,44.3,105.1,52.2,105.2,105.2
	c0,40.9-40.9,49.6-65.4,49.6C64.4,200,63.9,200,63.5,200z M807.7,168c0-17,12-34.3,30.3-34.3c2.2,0.1,4.4,0.4,6.5,1.2
	c1.6,0.7,3.4,1.1,5.1,1.2c2.5-0.2,4.9-1,7-2.4l5.1,17.7l-2.7,1c-7.6-10-12.8-15.5-20.3-15.5c-8,0-16.4,7.6-16.4,28.9
	c0,21,6.4,28.8,15.7,28.8c9.3,0,10.6-6.8,10.6-14.5c0-6.9-1.8-7.4-8.2-7.9V169h28.4v3.3c-6.8,0.8-7.6,2.7-7.6,9v12.4
	c-5.9,0.1-6.3,0.3-11.5,1.8c-4.3,1.3-8.1,2.4-12.7,2.4C819,197.9,807.7,185.9,807.7,168L807.7,168z M548.9,197.4l-17-47.3
	c-1.9-5.3-3.3-11.5-9.9-12.2v-2.7l27.9-0.1v2.8c-6,0.4-6.6,1.6-6.6,3.5c0.1,1.2,0.4,2.5,0.9,3.6l12.9,36.1l11-31.4
	c0.8-1.8,1.2-3.7,1.4-5.7c0-4.3-3.3-5.8-6.9-6v-2.8h20.6v2.8c-5.2,1.2-7.6,1.8-11.3,13.2l-16,46.2H548.9z M438.4,197.1V44.9h23.3
	v152.2H438.4z M356.2,197.1V44.9h23.3v152.2H356.2z M157.8,197.1l65.1-185.9l3.4-9.9h17.5l6.2,17.6l51.1,145.8l11.3,32.3H288
	l-19.5-55.7h-59c-18-0.1-22.6,8.8-23.5,11.2l-0.2,0.5l0,0l-15.5,44L157.8,197.1z M193.1,132.2l-2.2,6.3c2.7-4.3,11.1-5.2,15.8-5.4
	h29.2c22.8-0.3,24-15.3,24-16.4l-30.6-87.6L193.1,132.2z M874.9,196.4v-2.8c6,0,8.1-1.8,8.1-7.7v-40.3c0-5.8-2.1-7.7-8.1-7.7v-2.7
	h50.5l5.3,15.6l-2.6,1.1c-5.6-7.3-14.3-13.5-23.8-13.5c-7.4,0-7.4,2.5-7.4,8.7v16.3h1.7c8.4,0,12-1.4,14.9-9.9h3.3v24.2h-3.3
	c-2.2-8.4-6.5-10.4-14.7-10.4h-1.8V185c0,4.9,0.5,8.1,6.4,8.1c10.4,0,19.6-5.9,26.2-13.5l2.3,1.2l-6.3,15.6L874.9,196.4z
	 M590.7,196.4v-2.7c6,0,8.1-1.8,8.1-7.7v-40.3c0-5.8-2.1-7.7-8.1-7.7v-2.7h30v2.7c-6,0-8.1,1.8-8.1,7.7V186c0,5.9,2.1,7.7,8.1,7.7
	v2.7L590.7,196.4z M778.4,196.4v-2.7c5.3-0.2,6.6-1.3,6.6-3.8c-0.1-1.7-0.4-3.3-1-4.9l-3-9.9h-21.3l-1.8,5.3c-0.9,2.2-1.5,4.6-1.7,7
	c0,4.3,3.9,5.9,7.5,6.2v2.7h-22.2v-2.7c7.8-2.2,9.4-6.4,12-13.2l16.3-43.5L782,133l15.5,50.1c1.8,6,2.7,10.4,10.2,10.5v2.7
	L778.4,196.4z M761.4,171.2h18.3l-8.4-26.8L761.4,171.2z M685.1,196.4v-2.7c6,0,8.1-1.8,8.1-7.7v-40.3c0-5.8-2.1-7.7-8.1-7.7v-2.7
	h30v2.7c-6,0-8.1,1.8-8.1,7.7V186c0,5,0.1,7.2,6.3,7.2c10.3,0,19-6.8,25.4-14.2l2.1,0.8l-5.2,16.7L685.1,196.4z M628.2,196.4v-2.7
	c6,0,8.1-1.8,8.1-7.7v-40.3c0-5.8-2.1-7.7-8.1-7.7v-2.7h29.9v2.7c-6,0-8.1,1.8-8.1,7.7V186c0,5,0.1,7.2,6.3,7.2
	c10.3,0,19-6.8,25.4-14.2l2.1,0.8l-5.2,16.7L628.2,196.4z M524.2,106.9l3.3-9.9h424.4c11.1-0.1,31.5-1,37.2-5.2l4.3,15.1
	L524.2,106.9z M888.9,59c0.2-1.7,0.6-4.1,1.8-10.6c-0.1-0.1-0.2-0.1-0.3,0c-5,7.5-13.1,14.7-16.6,14.7c-3.4,0-4-5.5-4-8.5
	c0-7.6,2.8-16.2,7.4-20.7c3.6-3.6,10.8-6.6,12.8-6.6c1.4-0.1,2.8,0.1,4.2,0.6c0.2,0.1,0.4,0,0.4-0.2c1.4-6.4,3-16.3,3.4-18.7
	c0.3-2.3,0.4-3.1-0.5-3.1c-0.9,0-2.5,0.3-5.2,1.7c-0.3-0.1-0.1-1.1,0.1-1.2c3.1-2.3,9.1-5,10.5-5c0.6,0,0.5,1.4,0.3,2.6
	c-3,15.3-9.4,46.5-9.4,52.5c0,0.6,0.1,1.7,0.6,1.7c1,0,2.9-1.4,5.1-4c0.1,0,0.3,0.1,0.3,0.2c-0.1,0.6-0.2,1.2-0.4,1.7
	c-2.8,3.8-7.9,7.8-9.6,7.8C888.5,64.1,888.5,61.7,888.9,59L888.9,59z M874.4,52.3c0,4.2,1,6.2,2.9,6.2c1.9,0,6.9-3.2,11.9-10.9
	c1.3-2,2.2-4.2,2.6-6.5c0.5-2.4,1.4-6.6,1.5-7.9c0.1-0.5,0.1-0.8-0.2-1c-1.6-1.4-4.3-1.7-6.2-1.7C878.4,30.4,874.4,43.5,874.4,52.3
	L874.4,52.3z M674.9,62.3c0.1-1.6,0.3-3.3,0.7-4.9c2.3-13.1,8.6-45.6,8.9-49.2c0.1-1.2-0.1-1.7-0.8-1.7s-2.2,0.4-4.7,1.7
	c0-0.5,0-1,0.2-1.5c2.6-1.8,8-5,9.8-5c0.7,0,0.7,1.1,0.5,2.5c-1.9,10.3-6.3,33.1-7.6,40.3c0,0.2,0.3,0.3,0.5,0
	c6.4-9.9,15.2-17.3,19.6-17.3c1.9,0,2,2.7,1,8.3c-1,5.6-3,14.6-3.6,19.6c-0.1,1.7,0.1,2.3,0.9,2.3c0.8,0,2.6-1.3,4.8-3.9
	c0.1,0,0.2,0.2,0.2,0.3c0,0.5,0,1-0.2,1.5c-4,5.4-7.8,7.7-9.2,7.7c-1.4,0-1.4-3.1-1-6c1-5.8,2.7-13.5,3.9-19.9
	c0.7-3.7,0.7-5.5-1-5.5c-2.7,0-8.6,5.2-13.8,13.6c-2.1,3.2-3.4,6.7-4,10.5c-0.5,2.4-0.6,3.6-0.1,4.3c-0.7,0.7-3.5,3.2-4.6,3.2
	C675.1,63.3,674.9,62.7,674.9,62.3L674.9,62.3z M568.2,62.3c0.1-1.6,0.3-3.3,0.7-4.9c2.3-13.1,8.7-45.6,8.9-49.2
	c0.1-1.2-0.1-1.7-0.8-1.7c-0.9,0-2.2,0.4-4.7,1.7c0-0.5,0-1,0.3-1.5c2.6-1.8,8-5,9.8-5c0.7,0,0.7,1.1,0.5,2.5
	c-1.9,10.3-6.3,33.1-7.6,40.3c0,0.2,0.3,0.3,0.4,0c6.4-9.9,15.2-17.3,19.6-17.3c1.9,0,2,2.7,1,8.3c-1,5.6-3,14.6-3.6,19.6
	c-0.1,1.7,0.1,2.3,0.8,2.3s2.6-1.3,4.8-3.9c0.1,0,0.2,0.2,0.2,0.3c0,0.5,0,1-0.2,1.5c-4,5.4-7.8,7.7-9.2,7.7s-1.4-3.1-1-6
	c1-5.8,2.7-13.5,3.9-19.9c0.7-3.7,0.7-5.5-1-5.5c-2.7,0-8.6,5.2-13.8,13.6c-2.1,3.2-3.4,6.7-4,10.5c-0.5,2.4-0.6,3.6-0.1,4.3
	c-0.7,0.7-3.5,3.2-4.6,3.2C568.3,63.3,568.1,62.7,568.2,62.3L568.2,62.3z M761.2,61.5c-0.5-0.5-0.7-1.1-0.7-1.7
	c0.3-1.7,0.9-3.2,1.7-4.7c0.3-0.3,0.7-0.2,0.7-0.1c0.4,3.2,3.1,5.5,6.3,5.4c3.5,0,6.3-2.3,6.3-5.5c0-2.5-1-4.1-5.4-8.2
	c-3.7-3.3-4.3-5.3-4.3-7.4c0-2.5,0.8-5.3,4.1-8.1c2.2-2.1,5-3.4,8.1-3.6c2.1,0,3.4,0.8,3.4,1.3c0.1,0.3,0.1,0.6,0,0.9
	c-0.6,1.2-1.3,2.3-2.2,3.3c-0.2,0.2-0.4,0.1-0.6,0c-1.1-1.4-2.7-2.2-4.4-2.2c-2.8,0-5,2.2-5,5c0,0,0,0.1,0,0.1c0,0.1,0,0.2,0,0.3
	c0,2.1,0.9,3.7,4.8,7.4c4.2,3.8,5.5,5.5,5.5,7.9c0,1.9-0.7,4.9-4.3,8.1c-2.5,2.3-5.8,3.7-9.2,3.8C764.2,63.3,762.5,62.7,761.2,61.5
	L761.2,61.5z M835.2,62.6c0.3-2.6,3.7-16.9,5.2-27.5c0.2-1.2,0.1-1.9-0.3-1.9c-0.7,0-2.3,1.1-4.5,3.4c-0.1,0-0.2,0-0.2-0.1
	c-0.2-0.2,0.1-1.3,0.1-1.5c3.6-4.5,7.9-7.5,9.1-7.5s0.8,3.4-0.1,7.9c-0.7,3.7-1.3,7.2-1.9,9.8c0,0.1,0.2,0.2,0.3,0
	c5.6-8.5,11.3-13.4,15.1-15.8c1.3-1,2.9-1.6,4.5-1.8c1.1,0,1.8,1.9,0.3,9.4c-1.3,6.6-2.5,12.9-3.3,18c-0.2,1.4-0.2,2.8,0.6,2.8
	s2.2-0.8,4.8-3.9c0.1,0,0.2,0.1,0.2,0.2l0,0c0,0.5-0.1,1-0.2,1.5c-3.2,4.8-7.5,7.8-9.3,7.8c-1.6,0-1.2-3.5-0.3-8.9
	c1.4-6.9,2.8-13.9,3.5-17.8c0.4-2.7,0.3-4-1.1-4c-2.6,0-7.5,4.2-13.7,13.9c-1.2,2-2.1,4.2-2.7,6.5c-0.9,3.1-1.6,6.3-1.1,7.3
	c-1.2,1.3-2.6,2.3-4.2,3h-0.1C835.5,63.1,835.3,62.8,835.2,62.6L835.2,62.6z M819.9,56.6c0.2-2,0.9-6.1,1.4-8.8
	c0.1-0.2-0.1-0.3-0.2-0.1c-5,7.8-13.1,15.5-16.4,15.5c-3,0-3.6-5.1-3.6-8c0-7.3,2.8-15.3,7.8-20.7c2.2-2.2,8.4-6.9,14.7-6.9
	c2.2,0,4.4,0.2,6.5,0.7c-0.8,1.7-1.5,3.4-1.9,5.2c-1.4,5-3.6,18-3.8,22c-0.1,1.9,0.3,2.3,0.8,2.3c0.8,0,2.2-0.8,4.6-3.7
	c0,0,0.2,0,0.2,0.1c0.1,0.5,0.1,1.1-0.1,1.5c-2.4,4-7,7.4-8.6,7.4C820,63.2,819.3,61.4,819.9,56.6L819.9,56.6z M809.4,37.2
	c-2.4,4.6-3.7,9.7-3.6,14.9c0,3.9,0.9,5.8,2.8,5.8c2.1,0,6.2-3,11.4-11.4c1.3-2.2,2.3-4.6,2.8-7.1c0.6-2.7,1.4-5.5,2.3-8.1
	c-1.7-0.6-3.6-0.8-5.4-0.8C814.7,30.5,811.4,33.5,809.4,37.2L809.4,37.2z M786.2,54.4c1.3-8,6.8-35.8,8.1-44.9
	c0.3-2,0.3-2.9-0.6-2.9c-1.8,0.3-3.5,1-5.1,1.9c0-0.5,0.1-1,0.3-1.5c3.5-2.5,8.8-5.2,10-5.2c0.8,0,0.7,1.6,0.3,4.1
	c-2.2,11.5-8.1,42.4-8.7,48.1c-0.4,3,0.1,3.7,0.6,3.7c1,0,2.5-0.7,5.2-4c0.1,0,0.1,0,0.2,0.1c0.1,0.5,0,1-0.1,1.5
	c-3.7,5.1-7.5,7.8-9.3,7.8C785.8,63.2,785,61.7,786.2,54.4L786.2,54.4z M711.7,55l3.9-19.9c0.3-1.5,0.3-2.2-0.2-2.2
	c-0.9,0-2.8,1.6-4.3,2.8c0,0-0.2,0-0.2-0.1c-0.1-0.5,0-0.9,0.2-1.4c2.9-3.4,7.4-6.8,8.7-6.8c0.9,0,1.1,1.1,0.3,5.6
	c-1.2,6-3.8,18.1-4.2,22.2c-0.2,1.6,0,2.3,0.8,2.3c0.9,0,2.3-1.2,4.7-3.9c0,0,0.2,0.1,0.2,0.2c0.1,0.5,0,1.1-0.2,1.5
	c-3.9,5.6-8.1,7.8-8.9,7.8C711,63.2,710.5,60.8,711.7,55L711.7,55z M604.9,55l3.9-19.9c0.2-1.6,0.2-2.2-0.3-2.2
	c-0.9,0-2.7,1.6-4.2,2.9c0,0-0.2,0-0.2-0.1c-0.1-0.5,0-1,0.2-1.4c2.8-3.4,7.3-6.8,8.7-6.8c0.8,0,1.1,1.1,0.2,5.6
	c-1.2,6-3.8,18.1-4.2,22.2c-0.2,1.6,0,2.3,0.8,2.3c1,0,2.3-1.2,4.7-3.9c0,0,0.2,0.1,0.2,0.2c0.1,0.5,0,1.1-0.2,1.6
	c-3.9,5.6-8.1,7.8-8.9,7.8C604.2,63.2,603.7,60.8,604.9,55L604.9,55z M747.3,61.9c-4.2,0-7.8,0.3-9.9,0.3c-0.1-0.4-0.1-0.9,0.2-1.3
	c1.6-0.1,3.1-0.3,4.7-0.7c2.1-0.5,2.7-1.5,3.1-3.4c0.5-2.1,3-17.2,4.2-24.5c0.9-6.4,2.1-13.6,2.6-17.6c0.3-2.7,0.2-3.6-1.7-4.1
	c-1.3-0.3-2.7-0.5-4-0.6c-0.2-0.5-0.1-1,0.2-1.3c1.5,0,5,0.3,8.9,0.3c3.6,0,8-0.2,8.9-0.2c0.2,0.4,0.1,0.9-0.2,1.2
	c-1.3,0.2-2.7,0.3-3.6,0.6c-1.9,0.5-2.6,1-3.3,4.3c-0.8,3.6-2.2,12.6-3.4,20c-1.2,8.2-2.7,17.5-3.1,20.4c-0.3,2.6-0.3,4.4,1.8,4.9
	c1.6,0.4,3.2,0.6,4.8,0.8c0,0.5-0.1,0.9-0.3,1.3C755.6,62.1,751.1,61.8,747.3,61.9L747.3,61.9z M641.2,61.9c-3.8,0-9.1,0.3-10.4,0.3
	c-0.1-0.4-0.1-0.9,0.1-1.3c1.8-0.2,2.7-0.3,3.8-0.4c1.4-0.3,3.4-0.2,4.3-5c0.8-4.1,6.1-35.8,6.6-40.5c0.3-2.9-0.2-4-1.8-4.4
	c-1.3-0.3-2.7-0.5-4-0.6c-0.1-0.3,0.1-1.2,0.3-1.3c2.2,0,6.4,0.3,8.2,0.3h9.6c8.1,0,15,3.2,15,13.1c0.1,7.1-4.1,13.5-10.6,16.4
	c-2.9,1.3-5.5,2-10.5,2c-0.9,0-3.5-0.2-5-0.3c-0.2,0.1-0.4,0.3-0.4,0.5c-0.9,5.6-2.2,14.3-2.3,15.8c-0.2,2.1,0.1,3.4,2.5,3.8
	c1,0.2,3.2,0.5,4.3,0.7c0.1,0.4,0,0.9-0.2,1.3C648.7,62.2,644.2,61.9,641.2,61.9L641.2,61.9z M652,10.9c-0.4,0.3-0.7,0.7-0.8,1.2
	c-0.9,4.2-2.6,14-4.4,25.3c0,0.2,0.1,0.6,0.4,0.7c1.7,0.3,3.5,0.4,5.2,0.4c11.1,0,15-8.1,15-16.2c0-7.3-3.5-11.9-12.1-11.9h-0.3
	C653.9,10.5,653,10.6,652,10.9L652,10.9z M534.4,61.8c-3.8,0-9.1,0.3-10.4,0.3c-0.1-0.4-0.1-0.9,0.1-1.3c1.8-0.2,2.7-0.3,3.8-0.4
	c1.4-0.3,3.4-0.2,4.3-5c0.8-4.1,6.1-35.8,6.6-40.5c0.3-2.9-0.3-4-1.8-4.4c-1.3-0.3-2.7-0.5-4-0.6c-0.1-0.3,0.1-1.2,0.3-1.3
	c2.2,0,6.4,0.3,8.2,0.3h9.6c8.1,0,15,3.2,15,13.1c0.1,7.1-4.1,13.5-10.6,16.4c-2.9,1.3-5.4,2-10.5,2c-0.9,0-3.5-0.2-5-0.3
	c-0.2,0.1-0.4,0.3-0.4,0.5c-0.9,5.6-2.2,14.3-2.3,15.8c-0.2,2.1,0.1,3.4,2.5,3.8c1,0.2,3.2,0.5,4.3,0.7c0.1,0.4,0,0.9-0.2,1.3
	C541.9,62.1,537.4,61.8,534.4,61.8L534.4,61.8z M545.3,10.9c-0.4,0.3-0.7,0.7-0.8,1.2c-0.9,4.2-2.6,14-4.4,25.3
	c0,0.2,0.1,0.6,0.3,0.7c1.7,0.3,3.5,0.4,5.2,0.4c11.1,0,15-8.1,15-16.2c0-7.3-3.5-11.9-12.1-11.9h-0.3
	C547.2,10.5,546.2,10.6,545.3,10.9L545.3,10.9z M359.2,22.3c0-0.1-0.2-0.1-0.2-0.1c-0.1-0.1-0.3-0.2-0.4-0.3
	c-0.1-0.1-0.2-0.1-0.3-0.2c-0.1-0.1-0.2-0.1-0.3-0.2c-0.1-0.1-0.2-0.1-0.2-0.2l-0.2-0.2c-0.1-0.1-0.2-0.2-0.2-0.3
	c0-0.1-0.1-0.1-0.1-0.2c0-0.1-0.2-0.2-0.2-0.3l0-0.1c-0.1-0.1-0.1-0.2-0.2-0.3l0-0.1c-0.1-0.1-0.1-0.2-0.2-0.3l-0.1-0.1
	c0-0.1,0-0.1,0-0.2v-0.1c0-0.1,0-0.2-0.1-0.2v-0.1v-0.2V1.6h23.2v21.8H364C362.4,23.4,360.7,23,359.2,22.3L359.2,22.3z M446.6,23.4
	c-8,0-8.2-5.2-8.2-5.2V1.6h23.3v21.8H446.6z M612.4,18.8c-0.8-0.3-1.1-1.1-1.1-2.2c0-0.5,0.2-1,0.4-1.4c0.7-0.7,1.6-1.1,2.6-1.1
	c0.6,0,1.1,0.1,1.6,0.3l0,0c0.3,0.4,0.5,0.9,0.5,1.4c0,1.1-0.5,2.1-1.4,2.8c-0.6,0.2-1.2,0.3-1.8,0.3
	C613,18.8,612.7,18.8,612.4,18.8L612.4,18.8z M719.2,18.8c-0.8-0.3-1.1-1.1-1.1-2.3c0-0.5,0.2-1,0.4-1.4c0.7-0.7,1.6-1.1,2.6-1.1
	c0.6,0,1.1,0.1,1.6,0.3c0.4,0.4,0.6,0.9,0.5,1.4c0,1.1-0.5,2.1-1.4,2.7c-0.6,0.2-1.2,0.3-1.8,0.3C719.8,18.8,719.5,18.8,719.2,18.8
	L719.2,18.8z"/>
</svg>
